<svg width="300" height="55" viewBox="0 0 300 55" fill="none" xmlns="http://www.w3.org/2000/svg">
<g clip-path="url(#clip0_91_641)">
<path d="M61.4856 17.3771H65.7879V13.2945C65.7879 8.36321 68.5476 5.12927 74.054 5.12927L76.8138 5.64362V10.5749L73.8848 10.0605C72.16 10.0605 71.4766 11.0892 71.4766 12.7866V17.3771H76.983V22.3084H71.4701V42.7214H65.9636V22.3084H61.4856V17.3771ZM90.9313 16.8692C97.9933 16.8692 104.365 22.3083 104.365 30.1392C104.365 37.9701 98.1691 43.4029 90.9313 43.4029C83.6935 43.4029 77.5037 37.9637 77.5037 30.1392C77.5037 22.1412 83.8693 16.8692 90.9313 16.8692ZM90.9313 38.4716C96.0993 38.4716 98.8525 34.7297 98.8525 30.1392C98.8525 25.5487 96.0993 21.8004 90.9313 21.8004C85.7633 21.8004 83.0101 25.5423 83.0101 30.1392C83.0101 34.5562 85.7698 38.4716 90.9313 38.4716ZM120.039 16.8692C127.101 16.8692 133.466 22.3083 133.466 30.1392C133.466 37.9701 127.27 43.4029 120.039 43.4029C112.807 43.4029 106.604 37.9637 106.604 30.1392C106.774 22.1412 112.977 16.8692 120.039 16.8692ZM120.039 38.4716C125.2 38.4716 127.96 34.7297 127.96 30.1392C127.96 25.5487 125.2 21.8004 120.039 21.8004C114.877 21.8004 112.117 25.5423 112.117 30.1392C112.117 34.5562 114.871 38.4716 120.039 38.4716ZM162.059 42.7214H157.061L156.54 40.5161L156.201 40.1754L155.856 40.5161C154.132 42.2134 151.554 43.2357 148.794 43.2357C141.732 43.2357 135.712 37.7901 135.712 29.9656C135.712 22.1412 141.732 16.6956 148.794 16.6956C151.554 16.6956 154.307 17.7243 155.856 19.4216L156.201 19.7623L156.546 19.4216V5.30286H162.059V42.7214ZM149.139 21.6333C143.971 21.6333 141.218 25.3751 141.218 29.9656C141.218 34.5562 143.971 38.3044 149.139 38.3044C153.793 38.3044 157.061 34.5562 157.061 29.9656C157.061 25.5423 153.793 21.6333 149.139 21.6333ZM167.566 17.3771H172.564L173.079 19.5888L173.424 19.9295L173.769 19.5888C175.487 17.8914 178.071 16.8692 180.831 16.8692C187.886 16.8692 193.913 22.3083 193.913 30.1392C193.913 37.9701 187.886 43.4029 180.831 43.4029C178.071 43.4029 175.318 42.387 173.769 40.6833L173.424 40.3425L173.079 40.6833V54.2941H167.741V17.3771H167.566ZM180.31 38.4716C185.478 38.4716 188.231 34.7297 188.231 30.1392C188.231 25.5487 185.478 21.8004 180.31 21.8004C175.663 21.8004 172.389 25.5423 172.389 30.1392C172.389 34.5562 175.663 38.4716 180.31 38.4716ZM207.523 26.9053H211.995V25.7159C211.995 22.6491 209.931 21.2925 207.002 21.2925C204.594 21.2925 203.045 22.4819 202.186 24.6936L197.363 23.6714C198.391 19.4216 202.179 16.6956 207.178 16.6956C214.064 16.6956 217.508 20.1031 217.508 26.7317V42.5542H213.03L212.509 39.1467C210.791 41.7055 208.037 42.895 204.418 42.895C199.771 42.895 196.497 40.1754 196.497 35.0705C196.328 30.1392 200.806 26.9053 207.523 26.9053ZM205.115 38.4716C206.833 38.4716 208.552 37.9573 209.762 36.7678C211.136 35.5784 211.825 34.0482 211.825 32.0102V31.4958H207.178C203.904 31.4958 201.841 33.026 201.841 35.4113C201.841 37.1086 203.045 38.4716 205.108 38.4716H205.115ZM222.331 17.3771H227.323L227.844 19.5888L228.189 19.9295L228.527 19.5888C229.568 17.8914 232.322 16.8692 234.561 16.8692C241.102 16.8692 244.89 21.1189 244.89 27.0725V42.7214H239.377V27.0725C239.208 23.6714 237.49 21.6333 233.871 21.6333C230.597 21.6333 228.013 24.1857 227.844 27.4196V42.7214H222.331V17.3771ZM274.336 42.7214H269.344L268.823 40.5161L268.484 40.1754L268.139 40.5161C266.415 42.2134 263.831 43.2357 261.077 43.2357C254.015 43.2357 247.995 37.7901 247.995 29.9656C247.995 22.1412 254.015 16.6956 261.077 16.6956C263.831 16.6956 266.59 17.7243 268.139 19.4216L268.484 19.7623L268.829 19.4216V5.30286H274.336V42.7214ZM261.592 21.6333C256.43 21.6333 253.67 25.3751 253.67 29.9656C253.67 34.5562 256.43 38.3044 261.592 38.3044C266.245 38.3044 269.519 34.5562 269.519 29.9656C269.519 25.5423 266.245 21.6333 261.592 21.6333ZM290.009 26.9053H294.487V25.7159C294.487 22.6491 292.424 21.2925 289.495 21.2925C287.087 21.2925 285.531 22.4819 284.672 24.6936L279.855 23.6714C280.884 19.4216 284.672 16.6956 289.664 16.6956C296.557 16.6956 300 20.1031 300 26.7317V42.5542H295.522L295.001 39.1467C293.283 41.7055 290.523 42.895 286.911 42.895C282.257 42.895 278.99 40.1754 278.99 35.0705C278.814 30.1392 283.123 26.9053 290.009 26.9053ZM287.601 38.4716C289.319 38.4716 291.044 37.9573 292.248 36.7678C293.628 35.5784 294.318 34.0482 294.318 32.0102V31.4958H289.664C286.39 31.4958 284.327 33.026 284.327 35.4113C284.327 37.1086 285.531 38.4716 287.601 38.4716Z" fill="white"/>
<path d="M23.4222 34.7297C26.5269 34.7297 29.1109 32.5181 29.1109 29.7985H17.74C17.74 32.5181 20.1418 34.7297 23.4222 34.7297Z" fill="white"/>
<path d="M42.5385 11.2564C43.9184 10.2341 44.6083 8.53037 44.6083 6.65945C44.6083 3.25835 41.8551 0.705918 38.4054 0.705918C36.1729 0.705918 34.2723 1.72818 33.244 3.43194C30.1324 1.93901 26.7119 1.18182 23.253 1.22026C19.8012 1.2282 16.3931 1.98313 13.2685 3.43194C12.2271 1.72175 10.3395 0.705918 8.10052 0.705918C6.48043 0.688689 4.91916 1.3049 3.75717 2.42017C2.59519 3.53545 1.92676 5.05931 1.89765 6.65945C1.91207 7.52378 2.1028 8.37636 2.45843 9.16621C2.81406 9.95606 3.3273 10.667 3.96744 11.2564C1.3521 15.0057 -0.03182 19.4591 0.00358876 24.0121C0.00531308 30.103 2.45514 35.944 6.81468 40.2515C11.1742 44.559 17.0868 46.9806 23.253 46.984C29.418 46.9806 35.3296 44.5599 39.689 40.2538C44.0483 35.9477 46.4989 30.1083 46.5023 24.0185C46.5023 19.2609 45.1225 14.8311 42.5385 11.2628V11.2564ZM23.4287 45.1066C11.7064 45.1066 2.07338 35.5784 2.07338 24.0185C2.07338 19.5888 3.44674 15.5062 5.68576 12.1051C7.76981 8.9926 10.694 6.51832 14.1277 4.96211C16.8809 3.5991 20.1548 2.9176 23.4222 2.9176C26.6896 2.9176 29.9635 3.5991 32.7167 4.96211C36.1664 6.65945 38.9196 9.04471 41.1586 12.1051C43.3977 15.5126 44.771 19.5888 44.771 24.0121C44.771 35.5848 35.1315 45.1002 23.4222 45.1002L23.4287 45.1066Z" fill="white"/>
<path d="M23.4222 28.4354C23.7737 28.6026 27.3926 27.246 27.3926 25.5423C27.3926 24.52 24.4636 24.3528 23.4222 24.3528C22.3808 24.3528 19.4649 24.52 19.4649 25.5423C19.2956 27.246 23.0772 28.6026 23.4222 28.4354ZM36.8563 14.1431C34.793 12.7865 30.315 12.105 28.5902 14.3167C28.5902 14.3167 26.3512 16.6955 28.5902 19.0744C30.8292 21.4532 32.3783 23.8449 32.899 25.7158C33.4197 27.7539 34.2723 28.4354 35.8279 28.4354C37.3835 28.4354 40.4752 26.0566 40.9894 22.1412C41.1198 20.5605 40.8022 18.9751 40.0723 17.5626C39.3423 16.15 38.2288 14.966 36.8563 14.1431ZM32.2091 19.0808C31.5191 19.0808 31.0049 18.5665 31.0049 17.8914C31.0049 17.2163 31.5256 16.6955 32.2091 16.6955C32.8925 16.6955 33.4132 17.2099 33.4132 17.8914C33.4132 18.5729 32.8925 19.0808 32.2091 19.0808ZM18.085 14.3167C16.3667 12.105 11.8886 12.7865 9.81884 14.1431C7.74904 15.4997 5.34079 18.2257 5.68576 22.1412C6.03072 26.0566 9.13541 28.4354 10.8537 28.4354C12.4028 28.4354 13.262 27.5868 13.7827 25.7158C14.3034 23.6713 16.0217 21.4597 18.085 19.0808C20.324 16.5284 18.085 14.3167 18.085 14.3167ZM14.8176 19.0744C14.1277 19.0744 13.6069 18.5665 13.6069 17.8914C13.6069 17.2163 14.1277 16.6955 14.8176 16.6955C15.5075 16.6955 16.0217 17.2099 16.0217 17.8914C16.0217 18.5729 15.501 19.0744 14.8176 19.0744Z" fill="white"/>
</g>
<defs>
<clipPath id="clip0_91_641">
<rect width="300" height="55" fill="white"/>
</clipPath>
</defs>
</svg>
