<svg xmlns="http://www.w3.org/2000/svg" xmlns:xlink="http://www.w3.org/1999/xlink" width="424" zoomAndPan="magnify" viewBox="0 0 318 177.000001" height="236" preserveAspectRatio="xMidYMid meet" version="1.0"><defs><g/><clipPath id="40665f4a37"><path d="M 0.894531 9.820312 L 119.695312 9.820312 L 119.695312 157.5 L 0.894531 157.5 Z M 0.894531 9.820312 " clip-rule="nonzero"/></clipPath><clipPath id="35e9cc1494"><path d="M 12.007812 20.382812 L 114.179688 20.382812 L 114.179688 143.4375 L 12.007812 143.4375 Z M 12.007812 20.382812 " clip-rule="nonzero"/></clipPath></defs><g fill="#000000" fill-opacity="1"><g transform="translate(120.614952, 56.868807)"><g><path d="M 2.828125 -38.796875 L 14.859375 -38.796875 C 18.492188 -38.796875 21.394531 -38.019531 23.5625 -36.46875 C 25.726562 -34.914062 26.8125 -32.398438 26.8125 -28.921875 C 26.8125 -25.035156 25.195312 -22.257812 21.96875 -20.59375 C 27.476562 -19.625 30.234375 -16.363281 30.234375 -10.8125 C 30.234375 -7.550781 29.101562 -4.929688 26.84375 -2.953125 C 24.59375 -0.984375 21.492188 0 17.546875 0 L 2.828125 0 Z M 11.65625 -23.609375 L 12.375 -23.609375 C 14.34375 -23.609375 15.8125 -23.953125 16.78125 -24.640625 C 17.757812 -25.328125 18.25 -26.457031 18.25 -28.03125 C 18.25 -30.664062 16.289062 -31.984375 12.375 -31.984375 L 11.65625 -31.984375 Z M 11.65625 -6.8125 L 14.4375 -6.8125 C 18.757812 -6.8125 20.921875 -8.253906 20.921875 -11.140625 C 20.921875 -12.867188 20.378906 -14.109375 19.296875 -14.859375 C 18.222656 -15.609375 16.601562 -15.984375 14.4375 -15.984375 L 11.65625 -15.984375 Z M 11.65625 -6.8125 "/></g></g></g><g fill="#000000" fill-opacity="1"><g transform="translate(148.364212, 56.868807)"><g><path d="M 27.234375 -10.90625 L 9.734375 -10.90625 C 9.734375 -9.21875 10.28125 -7.960938 11.375 -7.140625 C 12.476562 -6.328125 13.671875 -5.921875 14.953125 -5.921875 C 16.304688 -5.921875 17.375 -6.097656 18.15625 -6.453125 C 18.9375 -6.816406 19.828125 -7.535156 20.828125 -8.609375 L 26.859375 -5.59375 C 24.347656 -1.394531 20.175781 0.703125 14.34375 0.703125 C 10.707031 0.703125 7.585938 -0.539062 4.984375 -3.03125 C 2.378906 -5.519531 1.078125 -8.519531 1.078125 -12.03125 C 1.078125 -15.550781 2.378906 -18.5625 4.984375 -21.0625 C 7.585938 -23.570312 10.707031 -24.828125 14.34375 -24.828125 C 18.164062 -24.828125 21.273438 -23.722656 23.671875 -21.515625 C 26.078125 -19.304688 27.28125 -16.148438 27.28125 -12.046875 C 27.28125 -11.472656 27.265625 -11.09375 27.234375 -10.90625 Z M 9.96875 -15.515625 L 19.140625 -15.515625 C 18.953125 -16.773438 18.457031 -17.738281 17.65625 -18.40625 C 16.851562 -19.082031 15.828125 -19.421875 14.578125 -19.421875 C 13.203125 -19.421875 12.101562 -19.0625 11.28125 -18.34375 C 10.46875 -17.625 10.03125 -16.679688 9.96875 -15.515625 Z M 9.96875 -15.515625 "/></g></g></g><g fill="#000000" fill-opacity="1"><g transform="translate(173.150357, 56.868807)"><g><path d="M 4.46875 -2.984375 C 2.207031 -5.441406 1.078125 -8.457031 1.078125 -12.03125 C 1.078125 -15.613281 2.207031 -18.640625 4.46875 -21.109375 C 6.726562 -23.585938 9.597656 -24.828125 13.078125 -24.828125 C 16.273438 -24.828125 18.90625 -23.828125 20.96875 -21.828125 L 20.96875 -24.125 L 29.296875 -24.125 L 29.296875 0 L 21.0625 0 L 21.0625 -2.734375 L 20.96875 -2.734375 C 18.90625 -0.441406 16.273438 0.703125 13.078125 0.703125 C 9.597656 0.703125 6.726562 -0.523438 4.46875 -2.984375 Z M 11.546875 -16.125 C 10.460938 -15.0625 9.921875 -13.695312 9.921875 -12.03125 C 9.921875 -10.375 10.4375 -9.019531 11.46875 -7.96875 C 12.507812 -6.914062 13.875 -6.390625 15.5625 -6.390625 C 17.195312 -6.390625 18.535156 -6.921875 19.578125 -7.984375 C 20.628906 -9.054688 21.15625 -10.410156 21.15625 -12.046875 C 21.15625 -13.703125 20.613281 -15.0625 19.53125 -16.125 C 18.457031 -17.195312 17.132812 -17.734375 15.5625 -17.734375 C 13.96875 -17.734375 12.628906 -17.195312 11.546875 -16.125 Z M 11.546875 -16.125 "/></g></g></g><g fill="#000000" fill-opacity="1"><g transform="translate(201.699187, 56.868807)"><g><path d="M 2.828125 0 L 2.828125 -24.125 L 11.140625 -24.125 L 11.140625 -21.59375 L 11.234375 -21.59375 C 13.398438 -23.75 15.707031 -24.828125 18.15625 -24.828125 C 19.34375 -24.828125 20.523438 -24.671875 21.703125 -24.359375 C 22.878906 -24.046875 24.007812 -23.5625 25.09375 -22.90625 C 26.175781 -22.25 27.050781 -21.316406 27.71875 -20.109375 C 28.394531 -18.898438 28.734375 -17.492188 28.734375 -15.890625 L 28.734375 0 L 20.40625 0 L 20.40625 -13.640625 C 20.40625 -14.890625 20.003906 -15.984375 19.203125 -16.921875 C 18.410156 -17.867188 17.367188 -18.34375 16.078125 -18.34375 C 14.828125 -18.34375 13.691406 -17.851562 12.671875 -16.875 C 11.648438 -15.90625 11.140625 -14.828125 11.140625 -13.640625 L 11.140625 0 Z M 2.828125 0 "/></g></g></g><g fill="#000000" fill-opacity="1"><g transform="translate(120.614952, 99.656941)"><g><path d="M 4.46875 -2.984375 C 2.207031 -5.441406 1.078125 -8.457031 1.078125 -12.03125 C 1.078125 -15.613281 2.207031 -18.640625 4.46875 -21.109375 C 6.726562 -23.585938 9.597656 -24.828125 13.078125 -24.828125 C 16.273438 -24.828125 18.90625 -23.828125 20.96875 -21.828125 L 20.96875 -24.125 L 29.296875 -24.125 L 29.296875 0 L 21.0625 0 L 21.0625 -2.734375 L 20.96875 -2.734375 C 18.90625 -0.441406 16.273438 0.703125 13.078125 0.703125 C 9.597656 0.703125 6.726562 -0.523438 4.46875 -2.984375 Z M 11.546875 -16.125 C 10.460938 -15.0625 9.921875 -13.695312 9.921875 -12.03125 C 9.921875 -10.375 10.4375 -9.019531 11.46875 -7.96875 C 12.507812 -6.914062 13.875 -6.390625 15.5625 -6.390625 C 17.195312 -6.390625 18.535156 -6.921875 19.578125 -7.984375 C 20.628906 -9.054688 21.15625 -10.410156 21.15625 -12.046875 C 21.15625 -13.703125 20.613281 -15.0625 19.53125 -16.125 C 18.457031 -17.195312 17.132812 -17.734375 15.5625 -17.734375 C 13.96875 -17.734375 12.628906 -17.195312 11.546875 -16.125 Z M 11.546875 -16.125 "/></g></g></g><g fill="#000000" fill-opacity="1"><g transform="translate(149.16378, 99.656941)"><g><path d="M 2.828125 0 L 2.828125 -24.125 L 11.140625 -24.125 L 11.140625 -21.59375 L 11.234375 -21.59375 C 13.398438 -23.75 15.707031 -24.828125 18.15625 -24.828125 C 19.34375 -24.828125 20.523438 -24.671875 21.703125 -24.359375 C 22.878906 -24.046875 24.007812 -23.5625 25.09375 -22.90625 C 26.175781 -22.25 27.050781 -21.316406 27.71875 -20.109375 C 28.394531 -18.898438 28.734375 -17.492188 28.734375 -15.890625 L 28.734375 0 L 20.40625 0 L 20.40625 -13.640625 C 20.40625 -14.890625 20.003906 -15.984375 19.203125 -16.921875 C 18.410156 -17.867188 17.367188 -18.34375 16.078125 -18.34375 C 14.828125 -18.34375 13.691406 -17.851562 12.671875 -16.875 C 11.648438 -15.90625 11.140625 -14.828125 11.140625 -13.640625 L 11.140625 0 Z M 2.828125 0 "/></g></g></g><g fill="#000000" fill-opacity="1"><g transform="translate(176.677867, 99.656941)"><g><path d="M 4.46875 -2.984375 C 2.207031 -5.441406 1.078125 -8.457031 1.078125 -12.03125 C 1.078125 -15.613281 2.207031 -18.640625 4.46875 -21.109375 C 6.726562 -23.585938 9.597656 -24.828125 13.078125 -24.828125 C 16.273438 -24.828125 18.90625 -23.828125 20.96875 -21.828125 L 20.96875 -40.453125 L 29.296875 -40.453125 L 29.296875 0 L 21.0625 0 L 21.0625 -2.734375 L 20.96875 -2.734375 C 18.90625 -0.441406 16.273438 0.703125 13.078125 0.703125 C 9.597656 0.703125 6.726562 -0.523438 4.46875 -2.984375 Z M 11.546875 -16.125 C 10.460938 -15.0625 9.921875 -13.695312 9.921875 -12.03125 C 9.921875 -10.375 10.4375 -9.019531 11.46875 -7.96875 C 12.507812 -6.914062 13.875 -6.390625 15.5625 -6.390625 C 17.195312 -6.390625 18.535156 -6.921875 19.578125 -7.984375 C 20.628906 -9.054688 21.15625 -10.410156 21.15625 -12.046875 C 21.15625 -13.703125 20.613281 -15.0625 19.53125 -16.125 C 18.457031 -17.195312 17.132812 -17.734375 15.5625 -17.734375 C 13.96875 -17.734375 12.628906 -17.195312 11.546875 -16.125 Z M 11.546875 -16.125 "/></g></g></g><g fill="#000000" fill-opacity="1"><g transform="translate(205.238516, 99.656941)"><g/></g></g><g fill="#000000" fill-opacity="1"><g transform="translate(120.614952, 142.445076)"><g><path d="M 2.828125 -38.796875 L 14.859375 -38.796875 C 18.492188 -38.796875 21.394531 -38.019531 23.5625 -36.46875 C 25.726562 -34.914062 26.8125 -32.398438 26.8125 -28.921875 C 26.8125 -25.035156 25.195312 -22.257812 21.96875 -20.59375 C 27.476562 -19.625 30.234375 -16.363281 30.234375 -10.8125 C 30.234375 -7.550781 29.101562 -4.929688 26.84375 -2.953125 C 24.59375 -0.984375 21.492188 0 17.546875 0 L 2.828125 0 Z M 11.65625 -23.609375 L 12.375 -23.609375 C 14.34375 -23.609375 15.8125 -23.953125 16.78125 -24.640625 C 17.757812 -25.328125 18.25 -26.457031 18.25 -28.03125 C 18.25 -30.664062 16.289062 -31.984375 12.375 -31.984375 L 11.65625 -31.984375 Z M 11.65625 -6.8125 L 14.4375 -6.8125 C 18.757812 -6.8125 20.921875 -8.253906 20.921875 -11.140625 C 20.921875 -12.867188 20.378906 -14.109375 19.296875 -14.859375 C 18.222656 -15.609375 16.601562 -15.984375 14.4375 -15.984375 L 11.65625 -15.984375 Z M 11.65625 -6.8125 "/></g></g></g><g fill="#000000" fill-opacity="1"><g transform="translate(148.364212, 142.445076)"><g><path d="M 27.234375 -10.90625 L 9.734375 -10.90625 C 9.734375 -9.21875 10.28125 -7.960938 11.375 -7.140625 C 12.476562 -6.328125 13.671875 -5.921875 14.953125 -5.921875 C 16.304688 -5.921875 17.375 -6.097656 18.15625 -6.453125 C 18.9375 -6.816406 19.828125 -7.535156 20.828125 -8.609375 L 26.859375 -5.59375 C 24.347656 -1.394531 20.175781 0.703125 14.34375 0.703125 C 10.707031 0.703125 7.585938 -0.539062 4.984375 -3.03125 C 2.378906 -5.519531 1.078125 -8.519531 1.078125 -12.03125 C 1.078125 -15.550781 2.378906 -18.5625 4.984375 -21.0625 C 7.585938 -23.570312 10.707031 -24.828125 14.34375 -24.828125 C 18.164062 -24.828125 21.273438 -23.722656 23.671875 -21.515625 C 26.078125 -19.304688 27.28125 -16.148438 27.28125 -12.046875 C 27.28125 -11.472656 27.265625 -11.09375 27.234375 -10.90625 Z M 9.96875 -15.515625 L 19.140625 -15.515625 C 18.953125 -16.773438 18.457031 -17.738281 17.65625 -18.40625 C 16.851562 -19.082031 15.828125 -19.421875 14.578125 -19.421875 C 13.203125 -19.421875 12.101562 -19.0625 11.28125 -18.34375 C 10.46875 -17.625 10.03125 -16.679688 9.96875 -15.515625 Z M 9.96875 -15.515625 "/></g></g></g><g fill="#000000" fill-opacity="1"><g transform="translate(173.150357, 142.445076)"><g><path d="M 21.109375 -24.125 L 30.71875 -24.125 L 11.75 12.234375 L 2.15625 12.234375 L 10.484375 -3.765625 L -0.9375 -24.125 L 8.65625 -24.125 L 15.375 -11.75 Z M 21.109375 -24.125 "/></g></g></g><g fill="#000000" fill-opacity="1"><g transform="translate(199.347508, 142.445076)"><g><path d="M 5.09375 -2.859375 C 2.414062 -5.242188 1.078125 -8.300781 1.078125 -12.03125 C 1.078125 -15.769531 2.472656 -18.835938 5.265625 -21.234375 C 8.054688 -23.628906 11.503906 -24.828125 15.609375 -24.828125 C 19.660156 -24.828125 23.070312 -23.617188 25.84375 -21.203125 C 28.613281 -18.796875 30 -15.738281 30 -12.03125 C 30 -8.332031 28.644531 -5.285156 25.9375 -2.890625 C 23.226562 -0.492188 19.785156 0.703125 15.609375 0.703125 C 11.285156 0.703125 7.78125 -0.484375 5.09375 -2.859375 Z M 11.546875 -16.125 C 10.460938 -15.0625 9.921875 -13.695312 9.921875 -12.03125 C 9.921875 -10.375 10.4375 -9.019531 11.46875 -7.96875 C 12.507812 -6.914062 13.875 -6.390625 15.5625 -6.390625 C 17.195312 -6.390625 18.535156 -6.921875 19.578125 -7.984375 C 20.628906 -9.054688 21.15625 -10.410156 21.15625 -12.046875 C 21.15625 -13.703125 20.613281 -15.0625 19.53125 -16.125 C 18.457031 -17.195312 17.132812 -17.734375 15.5625 -17.734375 C 13.96875 -17.734375 12.628906 -17.195312 11.546875 -16.125 Z M 11.546875 -16.125 "/></g></g></g><g fill="#000000" fill-opacity="1"><g transform="translate(226.861593, 142.445076)"><g><path d="M 2.828125 0 L 2.828125 -24.125 L 11.140625 -24.125 L 11.140625 -21.59375 L 11.234375 -21.59375 C 13.398438 -23.75 15.707031 -24.828125 18.15625 -24.828125 C 19.34375 -24.828125 20.523438 -24.671875 21.703125 -24.359375 C 22.878906 -24.046875 24.007812 -23.5625 25.09375 -22.90625 C 26.175781 -22.25 27.050781 -21.316406 27.71875 -20.109375 C 28.394531 -18.898438 28.734375 -17.492188 28.734375 -15.890625 L 28.734375 0 L 20.40625 0 L 20.40625 -13.640625 C 20.40625 -14.890625 20.003906 -15.984375 19.203125 -16.921875 C 18.410156 -17.867188 17.367188 -18.34375 16.078125 -18.34375 C 14.828125 -18.34375 13.691406 -17.851562 12.671875 -16.875 C 11.648438 -15.90625 11.140625 -14.828125 11.140625 -13.640625 L 11.140625 0 Z M 2.828125 0 "/></g></g></g><g fill="#000000" fill-opacity="1"><g transform="translate(254.375679, 142.445076)"><g><path d="M 4.46875 -2.984375 C 2.207031 -5.441406 1.078125 -8.457031 1.078125 -12.03125 C 1.078125 -15.613281 2.207031 -18.640625 4.46875 -21.109375 C 6.726562 -23.585938 9.597656 -24.828125 13.078125 -24.828125 C 16.273438 -24.828125 18.90625 -23.828125 20.96875 -21.828125 L 20.96875 -40.453125 L 29.296875 -40.453125 L 29.296875 0 L 21.0625 0 L 21.0625 -2.734375 L 20.96875 -2.734375 C 18.90625 -0.441406 16.273438 0.703125 13.078125 0.703125 C 9.597656 0.703125 6.726562 -0.523438 4.46875 -2.984375 Z M 11.546875 -16.125 C 10.460938 -15.0625 9.921875 -13.695312 9.921875 -12.03125 C 9.921875 -10.375 10.4375 -9.019531 11.46875 -7.96875 C 12.507812 -6.914062 13.875 -6.390625 15.5625 -6.390625 C 17.195312 -6.390625 18.535156 -6.921875 19.578125 -7.984375 C 20.628906 -9.054688 21.15625 -10.410156 21.15625 -12.046875 C 21.15625 -13.703125 20.613281 -15.0625 19.53125 -16.125 C 18.457031 -17.195312 17.132812 -17.734375 15.5625 -17.734375 C 13.96875 -17.734375 12.628906 -17.195312 11.546875 -16.125 Z M 11.546875 -16.125 "/></g></g></g><g fill="#000000" fill-opacity="1"><g transform="translate(282.924514, 142.445076)"><g><path d="M 8.1875 -10.0625 C 9.6875 -10.0625 10.960938 -9.535156 12.015625 -8.484375 C 13.066406 -7.429688 13.59375 -6.15625 13.59375 -4.65625 C 13.59375 -3.1875 13.066406 -1.925781 12.015625 -0.875 C 10.960938 0.175781 9.6875 0.703125 8.1875 0.703125 C 6.707031 0.703125 5.441406 0.175781 4.390625 -0.875 C 3.347656 -1.925781 2.828125 -3.1875 2.828125 -4.65625 C 2.828125 -6.15625 3.347656 -7.429688 4.390625 -8.484375 C 5.441406 -9.535156 6.707031 -10.0625 8.1875 -10.0625 Z M 8.1875 -10.0625 "/></g></g></g><g clip-path="url(#40665f4a37)"><path fill="#000000" d="M 0.894531 9.820312 L 119.695312 9.820312 L 119.695312 157.394531 L 0.894531 157.394531 Z M 0.894531 9.820312 " fill-opacity="1" fill-rule="nonzero"/></g><g clip-path="url(#35e9cc1494)"><path fill="#ffffff" d="M 88.714844 48.714844 C 88.714844 59.382812 82.203125 67.699219 71.808594 70.953125 C 84.867188 74.519531 92.28125 85.050781 92.28125 97.070312 C 92.28125 118.441406 72.398438 124.226562 54.59375 124.226562 C 39.457031 124.226562 27.160156 124.226562 12.023438 124.226562 L 12.023438 20.382812 C 27.023438 20.382812 39.457031 20.382812 54.59375 20.382812 C 72.085938 20.382812 88.714844 28.972656 88.714844 48.714844 Z M 20.027344 67.421875 L 55.632812 67.421875 C 68.105469 67.421875 81.164062 63.574219 81.164062 48.714844 C 81.164062 33.578125 67.515625 27.207031 54.59375 27.207031 L 20.027344 27.207031 Z M 20.027344 116.503906 L 54.59375 116.503906 C 67.652344 116.503906 84.417969 113.386719 84.417969 96.933594 C 84.28125 80.757812 69.59375 74.972656 55.632812 74.972656 C 43.164062 74.972656 32.496094 74.972656 20.027344 74.972656 Z M 41.953125 86.921875 L 41.953125 78.886719 L 33.949219 78.886719 L 33.949219 112.554688 L 41.953125 112.554688 L 41.953125 94.507812 C 54.421875 94.507812 65.089844 94.507812 77.558594 94.507812 C 78.460938 94.507812 79.394531 94.542969 80.332031 94.578125 C 79.949219 91.460938 78.84375 88.929688 77.285156 86.921875 Z M 92.628906 48.714844 C 92.628906 49.339844 92.59375 49.929688 92.558594 50.550781 C 98.691406 53.945312 103.054688 59.695312 103.054688 68.25 C 103.054688 76.460938 99.035156 81.308594 93.355469 84.011719 C 94.222656 85.882812 94.914062 87.855469 95.363281 89.933594 C 104.785156 86.332031 110.605469 78.367188 110.605469 68.25 C 110.605469 54.640625 102.707031 46.324219 92.074219 42.480469 C 92.453125 44.488281 92.628906 46.535156 92.628906 48.714844 Z M 95.640625 91.078125 C 96.023438 93.019531 96.195312 94.992188 96.195312 97.070312 C 96.195312 97.660156 96.160156 98.25 96.160156 98.835938 C 102.117188 102.265625 106.277344 107.914062 106.34375 116.46875 C 106.34375 132.921875 89.578125 136.039062 76.519531 136.039062 L 41.953125 136.039062 L 41.953125 128.140625 L 33.949219 128.140625 L 33.949219 143.726562 C 49.089844 143.726562 61.382812 143.726562 76.519531 143.726562 C 94.324219 143.726562 114.207031 137.945312 114.207031 116.570312 C 114.207031 105.175781 107.488281 95.132812 95.640625 91.078125 Z M 33.949219 39.917969 L 33.949219 63.472656 L 41.953125 63.472656 L 41.953125 46.742188 L 76.519531 46.742188 C 76.730469 46.742188 76.902344 46.742188 77.109375 46.742188 C 76.832031 44.074219 76 41.824219 74.789062 39.917969 C 60.449219 39.917969 48.359375 39.917969 33.949219 39.917969 Z M 33.949219 39.917969 " fill-opacity="1" fill-rule="nonzero"/></g></svg>