<svg xmlns="http://www.w3.org/2000/svg" xmlns:xlink="http://www.w3.org/1999/xlink" width="160" zoomAndPan="magnify" viewBox="0 0 120 149.249994" height="199" preserveAspectRatio="xMidYMid meet" version="1.0"><defs><clipPath id="b5bc93bb69"><path d="M 0.300781 0 L 119.175781 0 L 119.175781 147.773438 L 0.300781 147.773438 Z M 0.300781 0 " clip-rule="nonzero"/></clipPath><clipPath id="3baea7fb65"><path d="M 11.421875 10.566406 L 113.65625 10.566406 L 113.65625 133.699219 L 11.421875 133.699219 Z M 11.421875 10.566406 " clip-rule="nonzero"/></clipPath></defs><g clip-path="url(#b5bc93bb69)"><path fill="#000000" d="M 0.300781 0 L 119.175781 0 L 119.175781 147.664062 L 0.300781 147.664062 Z M 0.300781 0 " fill-opacity="1" fill-rule="nonzero"/></g><g clip-path="url(#3baea7fb65)"><path fill="#ffffff" d="M 88.175781 38.917969 C 88.175781 49.59375 81.660156 57.910156 71.261719 61.171875 C 84.328125 64.738281 91.746094 75.277344 91.746094 87.304688 C 91.746094 108.6875 71.851562 114.476562 54.035156 114.476562 C 38.890625 114.476562 26.585938 114.476562 11.4375 114.476562 L 11.4375 10.566406 C 26.445312 10.566406 38.890625 10.566406 54.035156 10.566406 C 71.539062 10.566406 88.175781 19.164062 88.175781 38.917969 Z M 19.445312 57.632812 L 55.074219 57.632812 C 67.554688 57.632812 80.621094 53.789062 80.621094 38.917969 C 80.621094 23.773438 66.964844 17.394531 54.035156 17.394531 L 19.445312 17.394531 Z M 19.445312 106.746094 L 54.035156 106.746094 C 67.101562 106.746094 83.878906 103.628906 83.878906 87.164062 C 83.738281 70.980469 69.042969 65.191406 55.074219 65.191406 C 42.597656 65.191406 31.921875 65.191406 19.445312 65.191406 Z M 41.386719 77.148438 L 41.386719 69.105469 L 33.378906 69.105469 L 33.378906 102.796875 L 41.386719 102.796875 L 41.386719 84.738281 C 53.863281 84.738281 64.539062 84.738281 77.015625 84.738281 C 77.914062 84.738281 78.851562 84.773438 79.789062 84.808594 C 79.40625 81.6875 78.296875 79.160156 76.738281 77.148438 Z M 92.089844 38.917969 C 92.089844 39.542969 92.058594 40.132812 92.023438 40.753906 C 98.15625 44.152344 102.523438 49.90625 102.523438 58.464844 C 102.523438 66.679688 98.503906 71.53125 92.820312 74.238281 C 93.6875 76.109375 94.378906 78.082031 94.828125 80.164062 C 104.257812 76.558594 110.082031 68.585938 110.082031 58.464844 C 110.082031 44.84375 102.175781 36.527344 91.539062 32.679688 C 91.917969 34.691406 92.089844 36.734375 92.089844 38.917969 Z M 95.105469 81.308594 C 95.488281 83.25 95.660156 85.222656 95.660156 87.304688 C 95.660156 87.890625 95.628906 88.480469 95.628906 89.070312 C 101.589844 92.503906 105.746094 98.152344 105.816406 106.710938 C 105.816406 123.175781 89.042969 126.296875 75.976562 126.296875 L 41.386719 126.296875 L 41.386719 118.394531 L 33.378906 118.394531 L 33.378906 133.988281 C 48.523438 133.988281 60.828125 133.988281 75.976562 133.988281 C 93.789062 133.988281 113.683594 128.203125 113.683594 106.816406 C 113.683594 95.414062 106.960938 85.363281 95.105469 81.308594 Z M 33.378906 30.113281 L 33.378906 53.683594 L 41.386719 53.683594 L 41.386719 36.941406 L 75.976562 36.941406 C 76.183594 36.941406 76.355469 36.941406 76.5625 36.941406 C 76.285156 34.273438 75.457031 32.019531 74.242188 30.113281 C 59.894531 30.113281 47.796875 30.113281 33.378906 30.113281 Z M 33.378906 30.113281 " fill-opacity="1" fill-rule="nonzero"/></g></svg>